Coordinates
version=1
nRows=11
nColumns=26
inDegrees=yes

Units are S.I. units (second, meters, Newtons, ...)
If the header above contains a line with 'inDegrees', this indicates whether rotational values are in degrees (yes) or radians (no).

endheader
time	pelvis_tilt	pelvis_list	pelvis_rotation	pelvis_tx	pelvis_ty	pelvis_tz	hip_flexion_r	hip_adduction_r	hip_rotation_r	knee_angle_r	knee_angle_r_beta	hip_flexion_l	hip_adduction_l	hip_rotation_l	knee_angle_l	knee_angle_l_beta	lumbar_extension	lumbar_bending	lumbar_rotation	ankle_angle_r	subtalar_angle_r	mtp_angle_r	ankle_angle_l	subtalar_angle_l	mtp_angle_l
      1.28000000	    -12.76344107	     -1.32528520	      2.07401921	     -0.41604433	      0.66466694	     -0.33570960	     38.56505506	     -2.12912985	     -8.43038638	     12.71487866	      0.22191650	      2.86311987	     -6.71422025	     -5.24626565	     24.36066911	      0.42517388	      2.36835818	     -1.96066108	     -8.32930511	      7.97015108	     -2.32333662	      0.00000000	     12.01207964	     -3.96309692	      0.00000000
      1.28500000	    -12.71304251	     -1.33714763	      2.13224867	     -0.40861836	      0.66443516	     -0.33474000	     38.20327436	     -1.93701996	     -7.92440839	     13.05068604	      0.22777744	      2.47958166	     -6.92281609	     -5.26882710	     24.80824083	      0.43298548	      2.49928074	     -1.92927101	     -8.38912445	      7.41076632	     -1.86389677	      0.00000000	     10.91881701	     -3.68298999	      0.00000000
      1.29000000	    -12.41357696	     -1.37067132	      1.99081433	     -0.40103465	      0.66430675	     -0.33362830	     37.81774933	     -1.67476794	     -7.54012748	     13.89844058	      0.24257355	      2.11189857	     -7.32609354	     -5.97598826	     25.93461218	      0.45264437	      2.34935210	     -1.81054648	     -8.19038728	      7.03248797	     -1.62262251	      0.00000000	      9.45318074	     -3.70457503	      0.00000000
      1.29500000	    -12.35393904	     -1.40566774	      2.07859403	     -0.39357992	      0.66428137	     -0.33241598	     37.43819067	     -1.48552904	     -7.13773599	     14.34193823	      0.25031404	      1.81467915	     -7.58809597	     -5.91191706	     26.46823200	      0.46195780	      2.45895590	     -1.85063041	     -8.20991823	      6.33551443	     -1.22882635	      0.00000000	      8.14645149	     -3.35735435	      0.00000000
      1.30000000	    -11.99890260	     -1.53210607	      1.97537534	     -0.38595537	      0.66416606	     -0.33152838	     37.35313058	     -1.28272252	     -7.06960572	     16.00292634	      0.27930375	      1.81730611	     -8.20516133	     -6.84501256	     28.35856523	      0.49495033	      2.26583859	     -1.54373195	     -8.03429060	      6.00307607	     -1.41883499	      0.00000000	      6.30795325	     -3.49863698	      0.00000000
      1.30500000	    -11.82980264	     -1.53770565	      2.07798776	     -0.37839626	      0.66401972	     -0.33055691	     37.54867849	     -1.31824225	     -7.05124053	     17.87865321	      0.31204136	      1.91764296	     -8.64108024	     -7.32832722	     29.87580407	      0.52143115	      2.27485754	     -1.53898484	     -8.06802251	      5.62686216	     -1.63160917	      0.00000000	      4.59365877	     -3.23678114	      0.00000000
      1.31000000	    -11.57489658	     -1.58908395	      2.07726836	     -0.37086230	      0.66425857	     -0.32958321	     37.12898881	     -1.19487652	     -7.06441253	     18.75102243	      0.32726708	      1.84133820	     -9.14533072	     -8.03800453	     31.20784139	      0.54467958	      2.17038383	     -1.42985397	     -7.94387796	      5.05075066	     -1.58181063	      0.00000000	      2.49431973	     -3.20576006	      0.00000000
      1.31500000	    -11.36541243	     -1.72572625	      2.07734177	     -0.36341510	      0.66442422	     -0.32869034	     36.84078871	     -1.03762328	     -7.20519836	     19.79407582	      0.34547180	      2.04758008	     -9.78926078	     -8.71372655	     32.92772294	      0.57469718	      2.10694854	     -1.19174404	     -7.85445212	      4.55070125	     -1.66267855	      0.00000000	      0.41247451	     -3.24890787	      0.00000000
      1.32000000	    -11.20250599	     -1.87014465	      2.12947664	     -0.35605880	      0.66462342	     -0.32775466	     36.60912168	     -0.91523126	     -7.42945921	     20.86193600	      0.36410947	      2.42526581	    -10.49442053	     -9.35051212	     34.78013461	      0.60702786	      2.08358057	     -0.99586463	     -7.77187217	      4.08945874	     -1.78987595	      0.00000000	     -1.67186856	     -3.30293876	      0.00000000
      1.32500000	    -11.01907025	     -2.02232882	      2.17911976	     -0.34876769	      0.66494488	     -0.32693179	     36.26830989	     -0.79663472	     -7.69816351	     21.77389511	      0.38002616	      2.84597065	    -11.24490251	    -10.04206093	     36.69223390	      0.64040029	      2.02028090	     -0.75949170	     -7.68888772	      3.71188792	     -1.92738322	      0.00000000	     -3.80458704	     -3.45584000	      0.00000000
      1.33000000	    -10.69568692	     -1.93918161	      2.22011876	     -0.34155067	      0.66568743	     -0.32620327	     35.55429359	     -0.85803966	     -7.82240843	     22.26704309	      0.38863322	      3.05965936	    -11.61299545	    -10.40808992	     38.35165606	      0.66936267	      1.72998471	     -0.80839733	     -7.45466984	      3.30822593	     -1.95762034	      0.00000000	     -5.86703795	     -3.48038606	      0.00000000
